<?xml version="1.0" standalone="no"?>
<!DOCTYPE svg PUBLIC "-//W3C//DTD SVG 1.1//EN" "http://www.w3.org/Graphics/SVG/1.1/DTD/svg11.dtd" >
<svg>
<metadata>
Created by FontForge 20090622 at Thu Oct  1 07:12:43 2015
 By deploy user
Copyright &#60;C&#62; Rubicon Computer Labs Inc., 1990-1996. Release 1.2
</metadata>
<defs>
<font id="Nova-Plain" horiz-adv-x="500" >
  <font-face 
    font-family="Nova"
    font-weight="5"
    font-stretch="normal"
    units-per-em="1000"
    panose-1="0 0 0 0 0 0 0 0 0 0"
    ascent="800"
    descent="-200"
    x-height="444"
    cap-height="694"
    bbox="-61 -345 1167 949"
    underline-thickness="20"
    underline-position="-123"
    unicode-range="U+0020-U+F002"
  />
<missing-glyph horiz-adv-x="750" 
d="M46 0v750h658v-750h-658zM658 46v658h-566v-658h566z" />
    <glyph glyph-name=".notdef" horiz-adv-x="750" 
d="M46 0v750h658v-750h-658zM658 46v658h-566v-658h566z" />
    <glyph glyph-name=".null" horiz-adv-x="0" 
 />
    <glyph glyph-name="nonmarkingreturn" horiz-adv-x="250" 
 />
    <glyph glyph-name="space" unicode=" " horiz-adv-x="250" 
 />
    <glyph glyph-name="exclam" unicode="!" horiz-adv-x="319" 
d="M200 694l-7 -517h-68l-7 517h82zM201 0h-83v83h83v-83z" />
    <glyph glyph-name="quotedbl" unicode="&#x22;" 
d="M374 694l-9 -335h-61l-8 335h78zM202 694l-8 -335h-62l-8 335h78z" />
    <glyph glyph-name="numbersign" unicode="#" horiz-adv-x="833" 
d="M776 151q0 -20 -20 -20h-238l-84 -311q-5 -14 -18 -14q-9 0 -16 8t-5 16l82 301h-188l-84 -311q-5 -14 -18 -14q-9 0 -16 8t-5 16l83 301h-173q-11 0 -15.5 7t-4.5 13q0 8 5 14t15 6h182l44 160h-226q-20 0 -20 19q0 9 5 15t15 6h237l83 307q2 6 7.5 11t13.5 5
q9 0 15.5 -8t2.5 -19l-80 -296h186l84 307q2 6 7.5 11t13.5 5t14.5 -8.5t3.5 -18.5l-81 -296h173q8 0 14 -4.5t6 -16.5q0 -19 -20 -19h-184l-43 -160h227q12 0 16 -7.5t4 -12.5zM530 331h-187l-43 -160h187z" />
    <glyph glyph-name="dollar" unicode="$" 
d="M446 199q0 -77 -48.5 -134t-116.5 -68v-53h-60v52q-52 5 -97.5 23t-79.5 45l13 68q43 -36 76 -52q41 -20 88 -20v262q-73 16 -119.5 66t-46.5 122q0 69 46 123t120 64v53h60v-52q45 0 79 -14q24 -10 69 -41l-13 -65q-29 24 -62 38.5t-73 18.5v-234q73 -17 119 -72
t46 -130zM221 412v222q-42 -10 -67 -41t-25 -72q0 -78 92 -109zM372 185q0 39 -19 70q-23 37 -72 54v-246q39 11 65 44t26 78z" />
    <glyph glyph-name="percent" unicode="%" horiz-adv-x="833" 
d="M776 145q0 -80 -39 -140.5t-98 -60.5q-57 0 -97 60.5t-40 140.5t39.5 141t97.5 61t97.5 -61t39.5 -141zM660 732q0 -9 -3 -13l-445 -764q-6 -11 -17 -11q-22 0 -22 21l3 10l445 764q8 11 18 11q8 0 14.5 -5.5t6.5 -12.5zM329 548q0 -80 -39 -140.5t-97 -60.5t-97.5 60.5
t-39.5 140.5q0 81 39 141.5t98 60.5q58 0 97 -60.5t39 -141.5zM707 145q0 65 -21 103.5t-47 38.5t-47 -38t-21 -104q0 -65 21 -103t47 -38t47 38t21 103zM261 548q0 65 -21 103.5t-47 38.5t-46 -36q-23 -41 -23 -106t21 -103t48 -38q26 0 47 38t21 103z" />
    <glyph glyph-name="ampersand" unicode="&#x26;" horiz-adv-x="758" 
d="M702 -5q-25 -7 -56.5 -12t-55.5 -5q-48 0 -91.5 17t-72.5 43q-37 -26 -90.5 -43t-106.5 -17q-85 0 -136 49t-51 120q0 57 51 113q12 13 102 91q-16 41 -24 78.5t-8 88.5q0 77 32 132q38 66 106 66q56 0 92.5 -45.5t36.5 -107.5q0 -46 -33 -95q-15 -22 -118 -125
q27 -56 69 -114q36 -50 86 -105q65 55 107 127q34 59 65 155l62 -16q-26 -93 -67 -165q-47 -84 -117 -146q30 -18 51.5 -26.5t54.5 -8.5q28 0 58 6t54 15v-70zM363 563q0 37 -16 64t-46 27q-35 0 -54 -30t-19 -73q0 -33 5 -65.5t21 -81.5q44 39 72 75q37 48 37 84zM374 83
q-27 23 -79 93q-57 76 -74 117q-62 -55 -70 -64q-31 -35 -31 -75q0 -46 30 -78t79 -32q72 0 145 39z" />
    <glyph glyph-name="quotesingle" unicode="'" horiz-adv-x="278" 
d="M172 694l-8 -334h-58l-8 334h74z" />
    <glyph glyph-name="parenleft" unicode="(" horiz-adv-x="389" 
d="M332 -250h-60q-86 70 -136 187q-58 135 -58 313q0 177 56 307q47 108 138 193h60q-86 -88 -128 -197q-48 -126 -48 -303q0 -181 48 -308q44 -116 128 -192z" />
    <glyph glyph-name="parenright" unicode=")" horiz-adv-x="389" 
d="M311 250q0 -178 -57 -312q-50 -116 -137 -188h-60q83 75 127 191q49 129 49 309q0 179 -47 302q-42 109 -129 198h60q91 -84 138 -193q56 -129 56 -307z" />
    <glyph glyph-name="asterisk" unicode="*" 
d="M432 418q-9 -20 -29 -20q-9 0 -22 8l-104 74l8 -138q3 -35 -36 -35q-34 0 -34 37l7 136l-104 -74q-11 -7 -22 -7q-17 0 -28 20q-6 9 -6 18q0 19 21 29l116 62l-115 63q-22 10 -22 28q0 8 8.5 23t24.5 15q10 0 21 -6l108 -76l-10 138q0 37 35 37q33 0 33 -38l-5 -137
l104 74q11 7 22 7q18 0 29 -19q5 -8 5 -18q0 -19 -21 -30l-115 -60l117 -63q20 -10 20 -28q0 -9 -6 -20z" />
    <glyph glyph-name="plus" unicode="+" horiz-adv-x="778" 
d="M716 250q0 -20 -20 -20h-288v-295q0 -11 -9 -17q-5 -3 -11 -3q-9 0 -15 5t-6 15v295h-291q-11 0 -15.5 7t-4.5 13q0 9 5 15t15 6h291v295q0 8 4.5 14t16.5 6q20 0 20 -20v-295h288q8 0 14 -4.5t6 -16.5z" />
    <glyph glyph-name="comma" unicode="," horiz-adv-x="278" 
d="M181 0l-42 -125h-42l28 125h-27v83h83v-83z" />
    <glyph glyph-name="hyphen" unicode="-" horiz-adv-x="333" 
d="M270 192h-258v58h258v-58z" />
    <glyph glyph-name="period" unicode="." horiz-adv-x="278" 
d="M181 0h-83v83h83v-83z" />
    <glyph glyph-name="slash" unicode="/" 
d="M440 731l-1 -8l-345 -960q-4 -13 -17 -13q-21 0 -21 19l1 8l345 960q4 13 17 13q21 0 21 -19z" />
    <glyph glyph-name="zero" unicode="0" 
d="M452 327q0 -189 -61 -276q-51 -73 -144 -73q-92 0 -143 73q-62 88 -62 276q0 190 61 277q52 74 144 74q91 0 143 -74q62 -89 62 -277zM375 339q0 130 -23 194q-30 84 -105 84q-74 0 -104 -83q-23 -65 -23 -195q0 -136 22 -205q30 -95 105 -95q73 0 104 94q24 73 24 206z
" />
    <glyph glyph-name="one" unicode="1" 
d="M421 0h-326v60h123v516q-26 -11 -61 -18t-69 -7v59q60 0 111 17t79 51h19v-618h124v-60z" />
    <glyph glyph-name="two" unicode="2" 
d="M444 469q0 -63 -47 -126q-32 -42 -108 -110q-34 -30 -79 -74l-88 -87h320v-72h-392v65l166 168q66 65 86 88q61 72 61 148q0 63 -41 103t-101 40q-65 0 -100 -53q-19 -29 -36 -96l-43 58q21 64 51 98q52 59 142 59q100 0 159 -70q50 -60 50 -139z" />
    <glyph glyph-name="three" unicode="3" 
d="M451 183q0 -90 -62.5 -147.5t-144.5 -57.5q-59 0 -115 29.5t-87 75.5l10 64q38 -54 93 -81q48 -24 99 -24t85.5 38.5t34.5 102.5q0 68 -30 105t-84 37h-84v61q12 0 38.5 3t45.5 7q38 11 65.5 47t27.5 83q0 40 -24 65q-27 28 -73 28q-56 0 -96 -30q-36 -27 -58 -78l-37 54
q43 62 85 86q47 27 106 27q72 0 122 -39q55 -43 55 -113q0 -58 -32 -104q-28 -41 -76 -65q59 -21 95 -63q41 -48 41 -111z" />
    <glyph glyph-name="four" unicode="4" 
d="M470 173h-100v-173h-77v173h-265v60l251 423h91v-423h100v-60zM299 233v387q-4 -64 -194 -387h194z" />
    <glyph glyph-name="five" unicode="5" 
d="M447 199q0 -99 -70 -163q-64 -58 -148 -58q-65 0 -123 36q-46 28 -68 65l32 56q29 -47 75 -72q40 -21 84 -21q51 0 86 33q45 42 45 124q0 75 -29.5 116t-70.5 41q-42 0 -70.5 -20.5t-41.5 -52.5h-67v373h332v-66h-262v-214q15 16 44.5 28.5t64.5 12.5q61 0 115 -46
q72 -61 72 -172z" />
    <glyph glyph-name="six" unicode="6" 
d="M452 210q0 -94 -60 -163t-144 -69q-111 0 -165 119q-41 91 -41 224q0 148 73.5 252.5t192.5 104.5q32 0 51 -4t50 -15v-62q-26 10 -49 16t-52 6q-72 0 -119 -56q-53 -63 -65 -186q39 40 80 60t90 20q67 0 112.5 -69t45.5 -178zM371 210q0 88 -30.5 135.5t-85.5 47.5
q-58 0 -93 -42t-35 -121q0 -82 34 -135t87 -53q52 0 85 39q38 45 38 129z" />
    <glyph glyph-name="seven" unicode="7" 
d="M451 588q-91 -107 -147 -243q-69 -169 -69 -356h-84q0 136 39 261q32 102 91 198q44 71 103 137h-342v71h409v-68z" />
    <glyph glyph-name="eight" unicode="8" 
d="M452 181q0 -88 -64 -147q-60 -56 -141 -56t-141 56q-64 59 -64 147q0 55 35.5 104t101.5 71q-40 9 -77 44q-47 45 -47 101q0 78 57.5 127.5t134.5 49.5t134 -49.5t57 -127.5q0 -55 -46 -100q-38 -36 -77 -45q66 -22 103 -72q34 -46 34 -103zM368 501q0 54 -33 86t-88 32
q-57 0 -90 -33t-33 -85q0 -45 31 -78q35 -37 92 -37t89 33t32 82zM373 181q0 68 -39 108q-35 36 -87 36q-53 0 -89 -38t-36 -106q0 -73 44 -110q34 -29 81 -29t82 31q44 39 44 108z" />
    <glyph glyph-name="nine" unicode="9" 
d="M452 337q0 -149 -71.5 -254t-175.5 -105q-37 0 -75 14t-57 34l29 56q25 -21 47 -30.5t56 -9.5q64 0 109 55q54 66 54 185q-71 -81 -168 -81q-67 0 -112.5 67.5t-45.5 168.5q0 103 64 174q61 67 141 67q112 0 165 -118q40 -89 40 -223zM366 437q0 73 -28 123
q-32 57 -91 57q-54 0 -87 -43q-37 -49 -37 -137q0 -86 31.5 -130t85.5 -44q57 0 91.5 44t34.5 130z" />
    <glyph glyph-name="colon" unicode=":" horiz-adv-x="278" 
d="M181 361h-83v83h83v-83zM181 0h-83v83h83v-83z" />
    <glyph glyph-name="semicolon" unicode=";" horiz-adv-x="278" 
d="M181 361h-83v83h83v-83zM181 0l-42 -125h-42l28 125h-27v83h83v-83z" />
    <glyph glyph-name="less" unicode="&#x3c;" horiz-adv-x="778" 
d="M687 -29q0 -7 -3 -12q-6 -11 -17 -11l-11 3l-551 275q-13 7 -15 9q-6 5 -6 15q0 6 3 10t18 12l554 275l10 1q8 0 13 -6t5 -13q0 -13 -12 -18l-525 -261l525 -263q12 -5 12 -16z" />
    <glyph glyph-name="equal" unicode="=" horiz-adv-x="778" 
d="M716 351q0 -20 -20 -20h-620q-11 0 -15.5 7t-4.5 13q0 9 5 15t15 6h620q8 0 14 -4.5t6 -16.5zM716 149q0 -20 -19 -20h-620q-21 0 -21 20t21 20h620q11 0 15 -7.5t4 -12.5z" />
    <glyph glyph-name="greater" unicode="&#x3e;" horiz-adv-x="778" 
d="M686 250q0 -8 -5 -13t-16 -11l-551 -275l-11 -3q-8 0 -14 7t-6 16q0 11 12 16l525 263l-525 261q-12 5 -12 18q0 19 18 19l10 -1l554 -275q12 -6 15 -9q6 -5 6 -13z" />
    <glyph glyph-name="question" unicode="?" horiz-adv-x="472" 
d="M415 560q0 -50 -22 -84q-13 -21 -41 -43q-38 -29 -67 -83.5t-29 -104.5v-65h-67v65q0 56 28.5 123.5t67.5 102.5q24 20 29 25q24 26 24 64q0 57 -40 80q-26 15 -73 15q-44 0 -76 -13t-71 -44l-22 65q35 25 76.5 39t92.5 14q108 0 156 -55q34 -39 34 -101zM265 0h-83v83
h83v-83z" />
    <glyph glyph-name="at" unicode="@" horiz-adv-x="667" 
d="M610 86q-53 -54 -116 -78q-51 -19 -107 -19q-144 0 -240 111q-91 105 -91 248q0 137 87 242q96 115 244 115q124 0 178 -106q42 -83 42 -233q0 -119 -57 -186q-52 -61 -126 -61q-63 0 -115 50q-67 64 -67 179q0 113 67 177q53 51 115 51q20 0 39.5 -5.5t44.5 -20.5
q-14 43 -45.5 68.5t-75.5 25.5q-95 0 -170 -74q-87 -86 -87 -222q0 -118 73.5 -208t183.5 -90q42 0 84.5 10t71.5 26h67zM534 348q0 81 -41 129q-33 38 -69 38t-68 -37q-42 -48 -42 -130q0 -81 42 -130q34 -39 68 -39q37 0 69 38q41 48 41 131z" />
    <glyph glyph-name="A" unicode="A" horiz-adv-x="667" 
d="M639 0h-92l-77 205h-290l-78 -205h-74l261 694h89zM449 261l-66 184q-43 120 -56 178q-14 -50 -26 -85l-39 -107l-62 -170h249z" />
    <glyph glyph-name="B" unicode="B" horiz-adv-x="667" 
d="M609 190q0 -81 -78 -137q-74 -53 -167 -53h-266v694h241q100 0 171 -51t71 -123q0 -58 -55 -103q-45 -37 -106 -53q65 -10 119 -50q70 -52 70 -124zM503 519q0 53 -63 88q-56 31 -127 31h-133v-246h137q70 0 128 37t58 90zM528 191q0 59 -63.5 100t-139.5 41h-145v-275
h159q72 0 127 35q62 39 62 99z" />
    <glyph glyph-name="C" unicode="C" horiz-adv-x="639" 
d="M585 36q-46 -33 -91.5 -45.5t-99.5 -12.5q-143 0 -238 113q-90 107 -90 256q0 151 91.5 260t234.5 109q46 0 89.5 -7t93.5 -29l-15 -83q-45 30 -83 41.5t-85 11.5q-107 0 -175 -95q-63 -88 -63 -208q0 -111 55 -197q67 -106 186 -106q62 0 100 15q23 9 83 48z" />
    <glyph glyph-name="D" unicode="D" horiz-adv-x="722" 
d="M665 342q0 -151 -97 -251q-89 -91 -203 -91h-269v694h269q114 0 203 -94q97 -102 97 -258zM579 342q0 147 -84 230q-67 66 -149 66h-164v-581h164q81 0 147 61q86 80 86 224z" />
    <glyph glyph-name="E" unicode="E" horiz-adv-x="597" 
d="M554 0h-460v691h446v-66l-357 2v-238h329v-60h-329v-258l371 2v-73z" />
    <glyph glyph-name="F" unicode="F" horiz-adv-x="569" 
d="M529 625l-346 2v-250h304v-61h-304v-316h-89v691h435v-66z" />
    <glyph glyph-name="G" unicode="G" horiz-adv-x="667" 
d="M600 28q-108 -50 -206 -50q-138 0 -233 106t-95 263t95 263t233 106q57 0 100.5 -10.5t98.5 -38.5l-15 -84q-39 31 -77 47q-50 21 -107 21q-92 0 -162 -78q-78 -87 -78 -226q0 -140 78 -226q69 -77 162 -77q36 0 67 5.5t61 16.5v170h-134v62h212v-270z" />
    <glyph glyph-name="H" unicode="H" horiz-adv-x="708" 
d="M613 0h-89v332h-341v-332h-89v694h89v-302h341v302h89v-694z" />
    <glyph glyph-name="I" unicode="I" horiz-adv-x="278" 
d="M185 0h-91v694h91v-694z" />
    <glyph glyph-name="J" unicode="J" horiz-adv-x="472" 
d="M384 131q0 -66 -46.5 -109.5t-126.5 -43.5q-37 0 -84.5 11t-84.5 32l13 77q55 -57 128 -57q52 0 84.5 26t32.5 64v563h84v-563z" />
    <glyph glyph-name="K" unicode="K" horiz-adv-x="694" 
d="M648 0h-93l-243 364l-131 -137v-227h-85v694h85v-372l361 372h92l-266 -273z" />
    <glyph glyph-name="L" unicode="L" horiz-adv-x="542" 
d="M494 0h-400v694h86v-630l314 3v-67z" />
    <glyph glyph-name="M" unicode="M" horiz-adv-x="875" 
d="M768 0h-77v623q-5 -27 -41 -128l-86 -229l-96 -252h-72l-95 251l-83 228t-41 130l-2 -623h-75v694h112l103 -273l81 -219q34 -96 37 -118q5 25 38 117l80 219l104 274h113v-694z" />
    <glyph glyph-name="N" unicode="N" horiz-adv-x="708" 
d="M605 0h-123l-224 449q-68 137 -85 175l-2 -624h-75v694h123l139 -278l113 -226q53 -107 59 -120l1 624h74v-694z" />
    <glyph glyph-name="O" unicode="O" horiz-adv-x="736" 
d="M675 344q0 -157 -96 -264q-91 -102 -213 -102q-126 0 -216 102q-94 106 -94 264q0 163 95 270q90 102 215 102q128 0 218.5 -108t90.5 -264zM587 359q0 131 -67 214q-63 79 -154 79q-90 0 -155 -79q-69 -84 -69 -214q0 -134 65.5 -224.5t158.5 -90.5q92 0 156.5 90
t64.5 225z" />
    <glyph glyph-name="P" unicode="P" horiz-adv-x="638" 
d="M581 492q0 -87 -72 -146q-68 -56 -154 -56h-171v-290h-88v694h259q86 0 153 -55q73 -60 73 -147zM502 492q0 64 -50 105t-117 41h-154v-291h154q66 0 116.5 41t50.5 104z" />
    <glyph glyph-name="Q" unicode="Q" horiz-adv-x="736" 
d="M675 345q0 -99 -40.5 -182.5t-108.5 -132.5l113 -155h-104l-80 118q-42 -15 -89 -15q-129 0 -219.5 107t-90.5 260q0 154 91 262.5t219 108.5t218.5 -108.5t90.5 -262.5zM590 345q0 132 -65.5 220.5t-158.5 88.5t-159 -88.5t-66 -220.5q0 -133 65.5 -218.5t159.5 -85.5
q10 0 24 2t26 5l-95 143h88l77 -105q48 40 76 107t28 152z" />
    <glyph glyph-name="R" unicode="R" horiz-adv-x="646" 
d="M615 0h-88l-188 318h-158v-318h-85v694h248q97 0 170 -53.5t73 -131.5q0 -55 -39 -102q-47 -56 -133 -79zM506 509q0 64 -61 100q-49 29 -106 29h-158v-260h156q62 0 111 31q58 37 58 100z" />
    <glyph glyph-name="S" unicode="S" horiz-adv-x="556" 
d="M496 189q0 -89 -66 -150t-156 -61q-61 0 -123.5 20t-106.5 53l14 84q33 -32 87 -57q66 -30 128 -30q57 0 98 34q45 38 45 99q0 57 -40.5 91.5t-116.5 46.5q-86 16 -138 60q-64 54 -64 141q0 70 50 126q63 70 174 70q51 0 95 -11t85 -39l-14 -86q-30 32 -66 48
q-44 20 -103 20q-60 0 -101.5 -32.5t-41.5 -84.5q0 -49 36.5 -79.5t124 -47t144 -73t56.5 -142.5z" />
    <glyph glyph-name="T" unicode="T" horiz-adv-x="681" 
d="M639 623l-258 1v-624h-87v624l-258 -1v65h603v-65z" />
    <glyph glyph-name="U" unicode="U" horiz-adv-x="688" 
d="M588 212q0 -79 -63 -151q-73 -83 -181 -83q-111 0 -185 82q-65 72 -65 152v482h88v-482q0 -57 33 -108q45 -69 129 -69t129 67q35 52 35 110v482h80v-482z" />
    <glyph glyph-name="V" unicode="V" horiz-adv-x="667" 
d="M650 694l-272 -694h-92l-272 694h91l98 -249l91 -239q41 -111 44 -135q4 26 45 135l92.5 242l96.5 246h78z" />
    <glyph glyph-name="W" unicode="W" horiz-adv-x="944" 
d="M926 694l-203 -694h-85l-118 412t-53 211q-4 -27 -27 -116q-10 -39 -61 -219l-82 -288h-79l-204 694h86l82 -284q49 -169 62 -220q24 -93 24 -119q1 28 23 117q19 74 60 218l83 288h81l82 -287q44 -154 61 -219q24 -90 26 -117q1 28 23 112.5t63.5 225.5l84.5 285h71z
" />
    <glyph glyph-name="X" unicode="X" horiz-adv-x="667" 
d="M650 0h-103l-222 306l-215 -306h-96l266 365l-252 329h103l193 -260l188 260h96l-240 -327z" />
    <glyph glyph-name="Y" unicode="Y" horiz-adv-x="667" 
d="M664 694l-288 -414v-280h-87v280l-285 414h103l233 -342l235 342h89z" />
    <glyph glyph-name="Z" unicode="Z" horiz-adv-x="611" 
d="M558 0h-502v45l384 587l-371 -2v64h484v-41l-385 -589l390 3v-67z" />
    <glyph glyph-name="bracketleft" unicode="[" horiz-adv-x="289" 
d="M267 -250h-167v1000h166v-60h-92v-879h93v-61z" />
    <glyph glyph-name="backslash" unicode="\" 
d="M444 -231q0 -19 -21 -19q-13 0 -17 13l-345 960l-1 8q0 19 21 19q13 0 17 -13l345 -960z" />
    <glyph glyph-name="bracketright" unicode="]" horiz-adv-x="289" 
d="M189 -250h-167v61h93v879h-92v60h166v-1000z" />
    <glyph glyph-name="asciicircum" unicode="^" 
d="M422 527h-61l-111 123l-111 -123h-61l140 167h64z" />
    <glyph glyph-name="underscore" unicode="_" horiz-adv-x="778" 
d="M687 -225q0 -21 -21 -21h-561q-21 0 -21 21t21 21h561q21 0 21 -21z" />
    <glyph glyph-name="grave" unicode="`" 
d="M293 527h-60l-149 167h80z" />
    <glyph glyph-name="a" unicode="a" horiz-adv-x="481" 
d="M394 0h-74v33q-23 -20 -71 -32t-88 -12q-59 0 -91 43q-26 35 -26 81q0 64 77.5 99t195.5 35v43q0 59 -29 88q-23 23 -56 23q-79 0 -150 -51l-7 68q35 22 75.5 32.5t81.5 10.5q65 0 109 -39q53 -47 53 -132v-290zM317 125v70q-95 0 -148.5 -20.5t-53.5 -61.5
q0 -28 29.5 -45t64.5 -17q53 0 80.5 19.5t27.5 54.5z" />
    <glyph glyph-name="b" unicode="b" horiz-adv-x="517" 
d="M480 223q0 -107 -60 -174q-54 -60 -125 -60q-44 0 -80 17q-27 13 -57 41v-47h-78v694h77v-296q31 26 67 40q44 17 95 17q63 0 110 -61q51 -67 51 -171zM404 223q0 70 -34 118q-38 53 -103 53q-34 0 -62 -16.5t-47 -42.5v-218q35 -66 98 -66t105.5 45.5t42.5 126.5z" />
    <glyph glyph-name="c" unicode="c" horiz-adv-x="444" 
d="M411 36q-35 -21 -75 -34t-84 -13q-94 0 -155 68t-61 166q0 99 60.5 168.5t159.5 69.5q50 0 88 -13q25 -9 63 -32l-12 -66q-36 25 -66.5 36t-72.5 11q-68 0 -105.5 -51t-37.5 -123q0 -70 37.5 -120t101.5 -50q37 0 77 12t77 40z" />
    <glyph glyph-name="d" unicode="d" horiz-adv-x="517" 
d="M436 0h-76v53q-35 -29 -61 -42q-43 -22 -89 -22q-76 0 -125 69t-49 164q0 91 48 159q52 74 132 74q34 0 75.5 -15.5t69.5 -38.5v293h75v-694zM360 122v217q-17 24 -43.5 39t-54.5 15q-66 0 -107 -46t-41 -125t38.5 -125t98.5 -46q37 0 68 24q21 17 41 47z" />
    <glyph glyph-name="e" unicode="e" horiz-adv-x="444" 
d="M411 221h-309q0 -70 43 -120t105 -50q31 0 70 12q49 15 78 41l7 -67q-34 -21 -74 -34.5t-81 -13.5q-95 0 -155.5 71t-60.5 167q0 91 51 158q58 76 150 76q95 0 141 -82q35 -63 35 -158zM353 278q-7 50 -35 83q-32 38 -83 38q-49 0 -83 -38q-29 -32 -43 -83h244z" />
    <glyph glyph-name="f" unicode="f" horiz-adv-x="306" 
d="M343 630q-30 15 -76 15q-45 0 -69 -20.5t-24 -50.5v-130h109v-57h-108v-387h-75v387h-74v57h74v99q0 69 47.5 115.5t114.5 46.5q24 0 43.5 -1t37.5 -5v-69z" />
    <glyph glyph-name="g" unicode="g" 
d="M480 392q-12 1 -21.5 1.5t-16.5 0.5h-14q-21 0 -45 -2t-38 -2q30 -43 30 -98q0 -72 -49 -118q-45 -43 -107 -43q-35 0 -61 13q-14 7 -30 18q-3 -10 -6 -19t-3 -19q0 -27 12 -40.5t32 -13.5h108q81 0 129 -26q65 -35 65 -114q0 -56 -62 -95.5t-156 -39.5q-93 0 -156 40.5
t-63 94.5q0 35 20 64q17 25 44 40q-12 13 -19 31.5t-7 35.5q0 35 8 56q1 4 20 37q-13 19 -20 36q-11 29 -11 62q0 71 45 117t111 46q32 0 55 -9t39 -22q19 11 63.5 21t92.5 10zM307 292q0 49 -23.5 77.5t-64.5 28.5t-65 -29t-24 -77t24.5 -76.5t64.5 -28.5t64 28t24 77z
M399 -70q0 38 -46 55q-35 13 -91 13h-99q-26 0 -47 -19t-21 -49q0 -26 31 -48q41 -29 121 -29q78 0 120 29q32 22 32 48z" />
    <glyph glyph-name="h" unicode="h" horiz-adv-x="517" 
d="M430 0h-78v306q0 43 -23.5 65.5t-69.5 22.5q-42 0 -71.5 -37t-29.5 -98v-259h-78v694h77v-309q26 31 53 47q38 23 86 23q134 0 134 -144v-311z" />
    <glyph glyph-name="i" unicode="i" horiz-adv-x="239" 
d="M164 588h-89v89h89v-89zM159 0h-78v444h78v-444z" />
    <glyph glyph-name="j" unicode="j" horiz-adv-x="267" 
d="M188 588h-89v89h89v-89zM188 -80q0 -44 -34 -82q-39 -43 -93 -43q-24 0 -59 8t-63 27l14 60q16 -15 36 -23t44 -8q40 0 62 22q17 17 17 36v527h76v-524z" />
    <glyph glyph-name="k" unicode="k" horiz-adv-x="489" 
d="M475 0h-82l-159 223l-82 -79v-144h-70v694h74v-458l208 208h89l-172 -172z" />
    <glyph glyph-name="l" unicode="l" horiz-adv-x="239" 
d="M154 0h-74v694h74v-694z" />
    <glyph glyph-name="m" unicode="m" horiz-adv-x="794" 
d="M716 0h-79v305q0 40 -21 63q-25 27 -76 27q-47 0 -75 -39.5t-28 -96.5v-259h-78v305q0 40 -25 65t-71 25q-57 0 -84 -53q-19 -37 -19 -83v-259h-80v455h71v-76q34 40 61 55q36 21 90 21q58 0 91 -28q16 -14 36 -50q26 35 57 54q40 24 93 24q74 0 108 -43q29 -37 29 -102
v-310z" />
    <glyph glyph-name="n" unicode="n" horiz-adv-x="517" 
d="M432 0h-79v305q0 41 -21 64q-24 26 -73 26t-77 -44q-24 -38 -24 -92v-259h-78v455h71v-75q32 39 58 54q35 21 87 21q65 0 100.5 -35.5t35.5 -109.5v-310z" />
    <glyph glyph-name="o" unicode="o" 
d="M467 221q0 -95 -62 -163.5t-155 -68.5q-92 0 -155 69t-63 163q0 97 59 166q63 74 159 74q95 0 158 -74q59 -69 59 -166zM389 232q0 69 -35 116q-38 51 -104 51t-103.5 -49t-37.5 -118q0 -76 37.5 -127t103.5 -51q65 0 102 51.5t37 126.5z" />
    <glyph glyph-name="p" unicode="p" horiz-adv-x="517" 
d="M482 223q0 -99 -54.5 -166.5t-132.5 -67.5q-43 0 -81 18q-29 14 -54 37v-238h-80v638h78v-44q32 25 66 38q44 17 97 17q73 0 119 -74q42 -67 42 -158zM404 223q0 74 -46 124q-41 45 -91 45q-32 0 -61.5 -16t-45.5 -41v-223q20 -31 37 -43q24 -18 59 -18q59 0 103.5 50.5
t44.5 121.5z" />
    <glyph glyph-name="q" unicode="q" horiz-adv-x="517" 
d="M436 -194h-76v243q-34 -28 -72 -44t-80 -16q-79 0 -125.5 64t-46.5 168q0 98 54 166t136 68q43 0 79 -20q27 -15 56 -46v66h75v-649zM361 120v181q-19 49 -42 70t-57 21q-56 0 -98 -43q-48 -49 -48 -128t43 -127q39 -43 93 -43q35 0 62.5 19t46.5 50z" />
    <glyph glyph-name="r" unicode="r" horiz-adv-x="342" 
d="M321 388q-64 0 -115 -48t-51 -114v-226h-75v455h70v-96q31 47 73.5 71.5t97.5 24.5v-67z" />
    <glyph glyph-name="s" unicode="s" horiz-adv-x="383" 
d="M361 131q0 -84 -64 -119q-42 -23 -99 -23q-96 0 -170 47l13 70q26 -21 70 -37.5t87 -16.5q49 0 74 23q20 18 20 44q0 33 -28.5 51t-87.5 26q-64 11 -102.5 46t-38.5 89q0 68 50 101q44 29 116 29q37 0 74 -7t71 -26l-11 -67q-45 21 -56 25q-38 13 -89 13q-44 0 -64 -13.5
t-20 -45.5q0 -31 26 -46.5t86.5 -25t97.5 -40.5q45 -38 45 -97z" />
    <glyph glyph-name="t" unicode="t" horiz-adv-x="361" 
d="M328 25q-27 -15 -67 -25.5t-74 -10.5q-46 0 -65.5 31.5t-19.5 83.5v283h-84v57h85v127h70v-127h139v-57h-139v-266q0 -32 12 -50.5t38 -18.5q20 0 43 7.5t45 25.5z" />
    <glyph glyph-name="u" unicode="u" horiz-adv-x="517" 
d="M432 0h-74v48q-29 -29 -77.5 -44t-92.5 -15q-107 0 -107 111v344h79v-344q0 -33 18.5 -45t58.5 -12q47 0 82.5 27.5t35.5 68.5v305h77v-444z" />
    <glyph glyph-name="v" unicode="v" horiz-adv-x="461" 
d="M449 444l-174 -444h-88l-173 444h77l71.5 -188.5t46.5 -124.5q18 -52 24 -81q6 31 22.5 78.5t46.5 126.5l72 189h75z" />
    <glyph glyph-name="w" unicode="w" horiz-adv-x="683" 
d="M667 444l-138 -444h-87l-56 191q-18 61 -32.5 119t-17.5 83q-7 -60 -106 -393h-79l-137 444h75q106 -351 106 -394q4 33 15.5 79t33.5 123l57 192h72l77 -261q28 -96 33 -133q5 32 16.5 75t36.5 127l58 192h73z" />
    <glyph glyph-name="x" unicode="x" horiz-adv-x="461" 
d="M460 0h-82l-151 187l-145 -187h-82l194 227l-188 217h82l139 -165l134 165h83l-183 -217z" />
    <glyph glyph-name="y" unicode="y" horiz-adv-x="461" 
d="M449 444l-212 -520q-28 -70 -55.5 -99.5t-67.5 -29.5q-34 0 -72 8l-7 70q30 -14 45 -18t34 -4q23 0 40 22q13 16 26 51l11 26q12 29 18 48l-195 446h78l82 -191q36 -87 50.5 -130.5t14.5 -74.5q0 30 13.5 77t44.5 126q20 53 77 193h75z" />
    <glyph glyph-name="z" unicode="z" horiz-adv-x="435" 
d="M403 0h-375v40l269 346h-255v58h360v-39l-268 -345l269 3v-63z" />
    <glyph glyph-name="braceleft" unicode="{" 
d="M447 -250h-62q-68 0 -117 30q-56 34 -56 89v234q0 50 -44.5 82.5t-113.5 32.5v61q66 0 112 33t46 80v238q0 51 47 85.5t124 34.5h64v-60q-86 0 -121.5 -11.5t-35.5 -48.5v-238q0 -55 -41 -94.5t-114 -47.5q71 -9 113 -51t42 -96v-234q0 -36 36 -47t121 -11v-61z" />
    <glyph glyph-name="bar" unicode="|" horiz-adv-x="278" 
d="M158 -230q0 -20 -19 -20q-9 0 -15 5t-6 15v961q0 8 4.5 13.5t16.5 5.5q19 0 19 -19v-961z" />
    <glyph glyph-name="braceright" unicode="}" 
d="M446 218q-67 0 -112.5 -32.5t-45.5 -82.5v-234q0 -54 -56 -88q-51 -31 -117 -31h-62v61q157 0 157 58v234q0 53 40 94q44 44 115 53q-71 8 -113 48t-42 94v238q0 36 -36.5 48t-120.5 12v60h64q76 0 123.5 -34.5t47.5 -85.5v-238q0 -46 46.5 -79.5t111.5 -33.5v-61z" />
    <glyph glyph-name="asciitilde" unicode="~" 
d="M411 677q0 -48 -27 -82.5t-70 -34.5q-19 0 -36 9l-27 18q-30 19 -33 20q-22 12 -35 12q-21 0 -30 -19.5t-9 -39.5h-59q0 56 29.5 86.5t68.5 30.5q18 0 42 -13.5t32 -18.5q29 -18 31 -19q13 -6 26 -6q18 0 28 16.5t10 40.5h59z" />
    <glyph glyph-name="Adieresis" unicode="&#xc4;" horiz-adv-x="667" 
d="M639 0h-92l-77 205h-290l-78 -205h-74l261 694h89zM449 261l-66 184q-43 120 -56 178q-14 -50 -26 -85l-39 -107l-62 -170h249zM471 854h-83v83h83v-83zM278 854h-83v83h83v-83z" />
    <glyph glyph-name="Aring" unicode="&#xc5;" horiz-adv-x="667" 
d="M639 0h-92l-77 205h-290l-78 -205h-74l261 694h89zM449 261l-66 184q-43 120 -56 178q-14 -50 -26 -85l-39 -107l-62 -170h249zM444 813q0 -32 -24 -55q-30 -29 -87 -29q-56 0 -87 29q-25 24 -25 55t24 54q31 29 88 29q56 0 86 -28q25 -23 25 -55zM388 813q0 42 -55 42
q-56 0 -56 -42t56 -42q55 0 55 42z" />
    <glyph glyph-name="Ccedilla" unicode="&#xc7;" horiz-adv-x="639" 
d="M585 36q-46 -33 -91.5 -45.5t-99.5 -12.5q-143 0 -238 113q-90 107 -90 256q0 151 91.5 260t234.5 109q46 0 89.5 -7t93.5 -29l-15 -83q-45 30 -83 41.5t-85 11.5q-107 0 -175 -95q-63 -88 -63 -208q0 -111 55 -197q67 -106 186 -106q62 0 100 15q23 9 83 48zM423 -33
l-65 -170h-69l73 170h61z" />
    <glyph glyph-name="Eacute" unicode="&#xc9;" horiz-adv-x="597" 
d="M554 0h-460v691h446v-66l-357 2v-238h329v-60h-329v-258l371 2v-73zM480 949l-149 -167h-60l130 167h79z" />
    <glyph glyph-name="Ntilde" unicode="&#xd1;" horiz-adv-x="708" 
d="M605 0h-123l-224 449q-68 137 -85 175l-2 -624h-75v694h123l139 -278l113 -226q53 -107 59 -120l1 624h74v-694zM511 932q0 -48 -27 -82.5t-70 -34.5q-19 0 -36 9l-27 18q-30 19 -33 20q-22 12 -35 12q-21 0 -30 -19.5t-9 -39.5h-59q0 56 29.5 86.5t68.5 30.5
q18 0 42 -13.5t32 -18.5q29 -18 31 -19q13 -6 26 -6q18 0 28 16.5t10 40.5h59z" />
    <glyph glyph-name="Odieresis" unicode="&#xd6;" horiz-adv-x="736" 
d="M675 344q0 -157 -96 -264q-91 -102 -213 -102q-126 0 -216 102q-94 106 -94 264q0 163 95 270q90 102 215 102q128 0 218.5 -108t90.5 -264zM587 359q0 131 -67 214q-63 79 -154 79q-90 0 -155 -79q-69 -84 -69 -214q0 -134 65.5 -224.5t158.5 -90.5q92 0 156.5 90
t64.5 225zM504 854h-83v83h83v-83zM311 854h-83v83h83v-83z" />
    <glyph glyph-name="Udieresis" unicode="&#xdc;" horiz-adv-x="688" 
d="M588 212q0 -79 -63 -151q-73 -83 -181 -83q-111 0 -185 82q-65 72 -65 152v482h88v-482q0 -57 33 -108q45 -69 129 -69t129 67q35 52 35 110v482h80v-482zM479 854h-83v83h83v-83zM286 854h-83v83h83v-83z" />
    <glyph glyph-name="aacute" unicode="&#xe1;" horiz-adv-x="481" 
d="M394 0h-74v33q-23 -20 -71 -32t-88 -12q-59 0 -91 43q-26 35 -26 81q0 64 77.5 99t195.5 35v43q0 59 -29 88q-23 23 -56 23q-79 0 -150 -51l-7 68q35 22 75.5 32.5t81.5 10.5q65 0 109 -39q53 -47 53 -132v-290zM317 125v70q-95 0 -148.5 -20.5t-53.5 -61.5
q0 -28 29.5 -45t64.5 -17q53 0 80.5 19.5t27.5 54.5zM395 694l-149 -167h-60l130 167h79z" />
    <glyph glyph-name="agrave" unicode="&#xe0;" horiz-adv-x="481" 
d="M394 0h-74v33q-23 -20 -71 -32t-88 -12q-59 0 -91 43q-26 35 -26 81q0 64 77.5 99t195.5 35v43q0 59 -29 88q-23 23 -56 23q-79 0 -150 -51l-7 68q35 22 75.5 32.5t81.5 10.5q65 0 109 -39q53 -47 53 -132v-290zM317 125v70q-95 0 -148.5 -20.5t-53.5 -61.5
q0 -28 29.5 -45t64.5 -17q53 0 80.5 19.5t27.5 54.5zM275 527h-60l-149 167h80z" />
    <glyph glyph-name="acircumflex" unicode="&#xe2;" horiz-adv-x="481" 
d="M394 0h-74v33q-23 -20 -71 -32t-88 -12q-59 0 -91 43q-26 35 -26 81q0 64 77.5 99t195.5 35v43q0 59 -29 88q-23 23 -56 23q-79 0 -150 -51l-7 68q35 22 75.5 32.5t81.5 10.5q65 0 109 -39q53 -47 53 -132v-290zM317 125v70q-95 0 -148.5 -20.5t-53.5 -61.5
q0 -28 29.5 -45t64.5 -17q53 0 80.5 19.5t27.5 54.5zM404 527h-61l-111 123l-111 -123h-61l140 167h64z" />
    <glyph glyph-name="adieresis" unicode="&#xe4;" horiz-adv-x="481" 
d="M394 0h-74v33q-23 -20 -71 -32t-88 -12q-59 0 -91 43q-26 35 -26 81q0 64 77.5 99t195.5 35v43q0 59 -29 88q-23 23 -56 23q-79 0 -150 -51l-7 68q35 22 75.5 32.5t81.5 10.5q65 0 109 -39q53 -47 53 -132v-290zM317 125v70q-95 0 -148.5 -20.5t-53.5 -61.5
q0 -28 29.5 -45t64.5 -17q53 0 80.5 19.5t27.5 54.5zM370 599h-83v83h83v-83zM177 599h-83v83h83v-83z" />
    <glyph glyph-name="atilde" unicode="&#xe3;" horiz-adv-x="481" 
d="M394 0h-74v33q-23 -20 -71 -32t-88 -12q-59 0 -91 43q-26 35 -26 81q0 64 77.5 99t195.5 35v43q0 59 -29 88q-23 23 -56 23q-79 0 -150 -51l-7 68q35 22 75.5 32.5t81.5 10.5q65 0 109 -39q53 -47 53 -132v-290zM317 125v70q-95 0 -148.5 -20.5t-53.5 -61.5
q0 -28 29.5 -45t64.5 -17q53 0 80.5 19.5t27.5 54.5zM394 677q0 -48 -27 -82.5t-70 -34.5q-19 0 -36 9l-27 18q-30 19 -33 20q-22 12 -35 12q-21 0 -30 -19.5t-9 -39.5h-59q0 56 29.5 86.5t68.5 30.5q18 0 42 -13.5t32 -18.5q29 -18 31 -19q13 -6 26 -6q18 0 28 16.5
t10 40.5h59z" />
    <glyph glyph-name="aring" unicode="&#xe5;" horiz-adv-x="481" 
d="M394 0h-74v33q-23 -20 -71 -32t-88 -12q-59 0 -91 43q-26 35 -26 81q0 64 77.5 99t195.5 35v43q0 59 -29 88q-23 23 -56 23q-79 0 -150 -51l-7 68q35 22 75.5 32.5t81.5 10.5q65 0 109 -39q53 -47 53 -132v-290zM317 125v70q-95 0 -148.5 -20.5t-53.5 -61.5
q0 -28 29.5 -45t64.5 -17q53 0 80.5 19.5t27.5 54.5zM353 584q0 -32 -24 -55q-30 -29 -87 -29q-56 0 -87 29q-25 24 -25 55t24 54q31 29 88 29q56 0 86 -28q25 -23 25 -55zM297 584q0 42 -55 42q-56 0 -56 -42t56 -42q55 0 55 42z" />
    <glyph glyph-name="ccedilla" unicode="&#xe7;" horiz-adv-x="444" 
d="M411 36q-35 -21 -75 -34t-84 -13q-94 0 -155 68t-61 166q0 99 60.5 168.5t159.5 69.5q50 0 88 -13q25 -9 63 -32l-12 -66q-36 25 -66.5 36t-72.5 11q-68 0 -105.5 -51t-37.5 -123q0 -70 37.5 -120t101.5 -50q37 0 77 12t77 40zM281 -22l-65 -170h-69l73 170h61z" />
    <glyph glyph-name="eacute" unicode="&#xe9;" horiz-adv-x="444" 
d="M411 221h-309q0 -70 43 -120t105 -50q31 0 70 12q49 15 78 41l7 -67q-34 -21 -74 -34.5t-81 -13.5q-95 0 -155.5 71t-60.5 167q0 91 51 158q58 76 150 76q95 0 141 -82q35 -63 35 -158zM353 278q-7 50 -35 83q-32 38 -83 38q-49 0 -83 -38q-29 -32 -43 -83h244zM398 694
l-149 -167h-60l130 167h79z" />
    <glyph glyph-name="egrave" unicode="&#xe8;" horiz-adv-x="444" 
d="M411 221h-309q0 -70 43 -120t105 -50q31 0 70 12q49 15 78 41l7 -67q-34 -21 -74 -34.5t-81 -13.5q-95 0 -155.5 71t-60.5 167q0 91 51 158q58 76 150 76q95 0 141 -82q35 -63 35 -158zM353 278q-7 50 -35 83q-32 38 -83 38q-49 0 -83 -38q-29 -32 -43 -83h244zM278 527
h-60l-149 167h80z" />
    <glyph glyph-name="ecircumflex" unicode="&#xea;" horiz-adv-x="444" 
d="M411 221h-309q0 -70 43 -120t105 -50q31 0 70 12q49 15 78 41l7 -67q-34 -21 -74 -34.5t-81 -13.5q-95 0 -155.5 71t-60.5 167q0 91 51 158q58 76 150 76q95 0 141 -82q35 -63 35 -158zM353 278q-7 50 -35 83q-32 38 -83 38q-49 0 -83 -38q-29 -32 -43 -83h244zM407 527
h-61l-111 123l-111 -123h-61l140 167h64z" />
    <glyph glyph-name="edieresis" unicode="&#xeb;" horiz-adv-x="444" 
d="M411 221h-309q0 -70 43 -120t105 -50q31 0 70 12q49 15 78 41l7 -67q-34 -21 -74 -34.5t-81 -13.5q-95 0 -155.5 71t-60.5 167q0 91 51 158q58 76 150 76q95 0 141 -82q35 -63 35 -158zM353 278q-7 50 -35 83q-32 38 -83 38q-49 0 -83 -38q-29 -32 -43 -83h244zM373 599
h-83v83h83v-83zM180 599h-83v83h83v-83z" />
    <glyph glyph-name="iacute" unicode="&#xed;" horiz-adv-x="239" 
d="M283 694l-149 -167h-60l130 167h79zM159 0h-78v444h78v-444zM159 0h-78v444h78v-444z" />
    <glyph glyph-name="igrave" unicode="&#xec;" horiz-adv-x="239" 
d="M159 0h-78v444h78v-444zM163 527h-60l-149 167h80z" />
    <glyph glyph-name="icircumflex" unicode="&#xee;" horiz-adv-x="239" 
d="M159 0h-78v444h78v-444zM292 527h-61l-111 123l-111 -123h-61l140 167h64z" />
    <glyph glyph-name="idieresis" unicode="&#xef;" horiz-adv-x="239" 
d="M159 0h-78v444h78v-444zM258 599h-83v83h83v-83zM65 599h-83v83h83v-83z" />
    <glyph glyph-name="ntilde" unicode="&#xf1;" horiz-adv-x="517" 
d="M432 0h-79v305q0 41 -21 64q-24 26 -73 26t-77 -44q-24 -38 -24 -92v-259h-78v455h71v-75q32 39 58 54q35 21 87 21q65 0 100.5 -35.5t35.5 -109.5v-310zM417 677q0 -48 -27 -82.5t-70 -34.5q-19 0 -36 9l-27 18q-30 19 -33 20q-22 12 -35 12q-21 0 -30 -19.5t-9 -39.5
h-59q0 56 29.5 86.5t68.5 30.5q18 0 42 -13.5t32 -18.5q29 -18 31 -19q13 -6 26 -6q18 0 28 16.5t10 40.5h59z" />
    <glyph glyph-name="oacute" unicode="&#xf3;" 
d="M467 221q0 -95 -62 -163.5t-155 -68.5q-92 0 -155 69t-63 163q0 97 59 166q63 74 159 74q95 0 158 -74q59 -69 59 -166zM389 232q0 69 -35 116q-38 51 -104 51t-103.5 -49t-37.5 -118q0 -76 37.5 -127t103.5 -51q65 0 102 51.5t37 126.5zM413 694l-149 -167h-60l130 167
h79z" />
    <glyph glyph-name="ograve" unicode="&#xf2;" 
d="M467 221q0 -95 -62 -163.5t-155 -68.5q-92 0 -155 69t-63 163q0 97 59 166q63 74 159 74q95 0 158 -74q59 -69 59 -166zM389 232q0 69 -35 116q-38 51 -104 51t-103.5 -49t-37.5 -118q0 -76 37.5 -127t103.5 -51q65 0 102 51.5t37 126.5zM293 527h-60l-149 167h80z" />
    <glyph glyph-name="ocircumflex" unicode="&#xf4;" 
d="M467 221q0 -95 -62 -163.5t-155 -68.5q-92 0 -155 69t-63 163q0 97 59 166q63 74 159 74q95 0 158 -74q59 -69 59 -166zM389 232q0 69 -35 116q-38 51 -104 51t-103.5 -49t-37.5 -118q0 -76 37.5 -127t103.5 -51q65 0 102 51.5t37 126.5zM422 527h-61l-111 123l-111 -123
h-61l140 167h64z" />
    <glyph glyph-name="odieresis" unicode="&#xf6;" 
d="M467 221q0 -95 -62 -163.5t-155 -68.5q-92 0 -155 69t-63 163q0 97 59 166q63 74 159 74q95 0 158 -74q59 -69 59 -166zM389 232q0 69 -35 116q-38 51 -104 51t-103.5 -49t-37.5 -118q0 -76 37.5 -127t103.5 -51q65 0 102 51.5t37 126.5zM388 599h-83v83h83v-83zM195 599
h-83v83h83v-83z" />
    <glyph glyph-name="otilde" unicode="&#xf5;" 
d="M467 221q0 -95 -62 -163.5t-155 -68.5q-92 0 -155 69t-63 163q0 97 59 166q63 74 159 74q95 0 158 -74q59 -69 59 -166zM389 232q0 69 -35 116q-38 51 -104 51t-103.5 -49t-37.5 -118q0 -76 37.5 -127t103.5 -51q65 0 102 51.5t37 126.5zM411 677q0 -48 -27 -82.5
t-70 -34.5q-19 0 -36 9l-27 18q-30 19 -33 20q-22 12 -35 12q-21 0 -30 -19.5t-9 -39.5h-59q0 56 29.5 86.5t68.5 30.5q18 0 42 -13.5t32 -18.5q29 -18 31 -19q13 -6 26 -6q18 0 28 16.5t10 40.5h59z" />
    <glyph glyph-name="uacute" unicode="&#xfa;" horiz-adv-x="517" 
d="M432 0h-74v48q-29 -29 -77.5 -44t-92.5 -15q-107 0 -107 111v344h79v-344q0 -33 18.5 -45t58.5 -12q47 0 82.5 27.5t35.5 68.5v305h77v-444zM413 694l-149 -167h-60l130 167h79z" />
    <glyph glyph-name="ugrave" unicode="&#xf9;" horiz-adv-x="517" 
d="M432 0h-74v48q-29 -29 -77.5 -44t-92.5 -15q-107 0 -107 111v344h79v-344q0 -33 18.5 -45t58.5 -12q47 0 82.5 27.5t35.5 68.5v305h77v-444zM299 527h-60l-149 167h80z" />
    <glyph glyph-name="ucircumflex" unicode="&#xfb;" horiz-adv-x="517" 
d="M432 0h-74v48q-29 -29 -77.5 -44t-92.5 -15q-107 0 -107 111v344h79v-344q0 -33 18.5 -45t58.5 -12q47 0 82.5 27.5t35.5 68.5v305h77v-444zM428 527h-61l-111 123l-111 -123h-61l140 167h64z" />
    <glyph glyph-name="udieresis" unicode="&#xfc;" horiz-adv-x="517" 
d="M432 0h-74v48q-29 -29 -77.5 -44t-92.5 -15q-107 0 -107 111v344h79v-344q0 -33 18.5 -45t58.5 -12q47 0 82.5 27.5t35.5 68.5v305h77v-444zM394 599h-83v83h83v-83zM201 599h-83v83h83v-83z" />
    <glyph glyph-name="dagger" unicode="&#x2020;" horiz-adv-x="444" 
d="M387 444q0 -16 -11.5 -27.5t-27.5 -11.5q-22 0 -35.5 1.5t-66.5 12.5q2 -16 8 -79.5t6 -78.5v-477h-78v477q0 21 5 69.5t10 88.5q-31 -7 -56.5 -10.5t-45.5 -3.5q-16 0 -27.5 11.5t-11.5 27.5t11.5 27.5t27.5 11.5q20 0 46 -3.5t56 -10.5q0 23 -4 72q-10 122 -10 125
q0 16 11.5 27.5t27.5 11.5t27.5 -11.5t11.5 -27.5q0 -21 -6 -95q-2 -27 -9 -102l57.5 10t44.5 4q16 0 27.5 -11.5t11.5 -27.5z" />
    <glyph glyph-name="degree" unicode="&#xb0;" horiz-adv-x="389" 
d="M341 532q0 -62 -42 -104t-104 -42t-104 42t-42 104t42 104t104 42t104 -42t42 -104zM282 532q0 38 -26 65t-62 27q-35 0 -61 -27t-26 -65t25 -65t62 -27q36 0 62 27t26 65z" />
    <glyph glyph-name="cent" unicode="&#xa2;" horiz-adv-x="444" 
d="M411 36q-35 -21 -75 -34t-84 -13q-25 0 -49 6l-26 -93l-56 16l28 98q-52 30 -82.5 85.5t-30.5 121.5q0 99 60.5 168.5t159.5 69.5l20 -1l23 81l56 -16l-21 -74q21 -6 39 -15q12 -6 34 -20l-12 -66q-20 14 -39.5 24t-39.5 16l-95 -333q13 -4 31 -4q37 0 77 12t77 40z
M258 397q-69 0 -109 -53q-36 -48 -36 -121q0 -41 14.5 -78.5t40.5 -60.5z" />
    <glyph glyph-name="sterling" unicode="&#xa3;" horiz-adv-x="639" 
d="M625 131q0 -76 -84 -114q-61 -28 -141 -28q-46 0 -105 20q-34 12 -84 36q-29 -27 -61 -41.5t-65 -14.5q-32 0 -55 13q-30 17 -30 52q0 39 46 60q35 16 79 16q18 0 30.5 -2t20.5 -4q4 19 4 37v144h-70v56h70v148q0 68 45 127q53 69 132 69q69 0 116.5 -59.5t47.5 -145.5
h-77q0 53 -16 91q-22 53 -71 53q-51 0 -78 -48q-21 -38 -21 -87v-148h99v-56h-99v-144q0 -19 -2.5 -31.5t-8.5 -27.5q126 -54 182 -54q47 0 80 20q39 23 39 63h77zM138 65q-19 7 -39 7q-26 0 -26 -17q0 -7 13 -7q11 0 26 4.5t26 12.5z" />
    <glyph glyph-name="section" unicode="&#xa7;" horiz-adv-x="444" 
d="M371 -40q0 -72 -45.5 -118.5t-103.5 -46.5q-55 0 -96 38t-41 99q0 16 11.5 27.5t27.5 11.5t27.5 -11.5t11.5 -27.5q0 -28 14.5 -52t44.5 -24q27 0 47 24q25 30 25 80q0 48 -24.5 79t-72.5 52t-82 59q-44 49 -44 108q0 48 22 86.5t57 57.5q-43 34 -61 66.5t-18 71.5
q0 73 47 121q43 44 104 44q57 0 96.5 -40.5t39.5 -96.5q0 -16 -11.5 -27.5t-27.5 -11.5t-27.5 11.5t-11.5 27.5q0 29 -12 49q-16 27 -46 27q-36 0 -54.5 -32.5t-18.5 -71.5q0 -46 22 -75.5t71 -52t85 -62.5q44 -49 44 -107q0 -95 -78 -145q32 -22 52 -53q26 -40 26 -85z
M293 243q0 47 -25 81q-18 24 -46 37q-36 0 -54.5 -32t-18.5 -71q0 -46 23 -78q18 -24 50 -41q31 0 51 28.5t20 75.5z" />
    <glyph glyph-name="bullet" unicode="&#x2022;" 
d="M444 250q0 -80 -57 -137t-137 -57t-137 57t-57 137t57 137t137 57t137 -57t57 -137z" />
    <glyph glyph-name="paragraph" unicode="&#xb6;" horiz-adv-x="606" 
d="M579 674q0 -20 -20 -20h-63v-828q0 -20 -20 -20t-20 20v828h-70v-828q0 -20 -20 -20t-20 20v404q-89 0 -174 48q-115 65 -115 184q0 102 78 170q71 62 161 62h263q20 0 20 -20z" />
    <glyph glyph-name="germandbls" unicode="&#xdf;" horiz-adv-x="481" 
d="M449 179q0 -82 -51 -136t-125 -54q-45 0 -87 13l21 59q30 -11 66 -11q38 0 65 28q33 34 33 101q0 92 -46.5 148.5t-111.5 56.5v60q52 0 89 29q41 32 41 86q0 35 -24 60t-68 25q-45 0 -70 -24t-25 -58v-562h-75v563q0 55 47.5 98.5t122.5 43.5t124 -46q46 -43 46 -100
q0 -47 -26.5 -85t-67.5 -62q49 -30 83 -89q39 -68 39 -144z" />
    <glyph glyph-name="registered" unicode="&#xae;" horiz-adv-x="1000" 
d="M944 250q0 -184 -130 -314t-314 -130t-314 130t-130 314t130 314t314 130t314 -130t130 -314zM904 250q0 168 -118 286t-286 118t-286 -118t-118 -286t118 -286t286 -118t286 118t118 286zM722 0h-70l-142 221h-123v-221h-67v486h192q74 0 132 -38t58 -92
q0 -41 -34.5 -77.5t-96.5 -50.5zM640 356q0 44 -49 68q-39 19 -86 19h-118v-176h119q49 0 87 20q47 25 47 69z" />
    <glyph glyph-name="copyright" unicode="&#xa9;" horiz-adv-x="1000" 
d="M944 250q0 -184 -130 -314t-314 -130t-314 130t-130 314t130 314t314 130t314 -130t130 -314zM904 250q0 168 -118 286t-286 118t-286 -118t-118 -286t118 -286t286 -118t286 118t118 286zM675 31q-33 -20 -69 -29.5t-80 -9.5q-107 0 -180 73t-73 178q0 100 68 172
q73 77 185 77q36 0 68 -5t70 -19l-10 -62q-30 20 -62.5 29.5t-65.5 9.5q-81 0 -132.5 -60t-51.5 -142q0 -79 46 -137q52 -66 138 -66q45 0 76 9.5t68 33.5z" />
    <glyph glyph-name="trademark" unicode="&#x2122;" horiz-adv-x="934" 
d="M869 278h-46v374q-2 -13 -25 -77q-15 -43 -51 -137l-58 -152h-43q-6 15 -56 151l-51 137q-21 61 -24 78l-1 -374h-45v416h67l88 -235q42 -113 44 -131q4 19 45 130l89 236h67v-416zM383 652h-154v-374h-53v374h-154v39h361v-39z" />
    <glyph glyph-name="acute" unicode="&#xb4;" 
d="M413 694l-149 -167h-60l130 167h79z" />
    <glyph glyph-name="dieresis" unicode="&#xa8;" 
d="M388 599h-83v83h83v-83zM195 599h-83v83h83v-83z" />
    <glyph glyph-name="AE" unicode="&#xc6;" horiz-adv-x="861" 
d="M815 0h-397v221h-225l-89 -221h-75l281 694h491v-66l-298 3v-239h270v-60h-270v-262l312 3v-73zM418 277v354h-58l-144 -354h202z" />
    <glyph glyph-name="Oslash" unicode="&#xd8;" horiz-adv-x="778" 
d="M717 344q0 -159 -101 -265q-96 -101 -229 -101q-77 0 -149 39l-46 -82l-56 32l49 87q-58 49 -93 124.5t-35 165.5q0 162 102 270q97 102 228 102q77 0 148 -40l47 83l56 -32l-50 -88q59 -51 94 -126.5t35 -168.5zM632 344q0 72 -21.5 132t-57.5 101l-283 -504
q56 -34 117 -34q101 0 170 79q75 86 75 226zM504 620q-55 35 -117 35q-98 0 -168 -80q-77 -88 -77 -231q0 -73 20.5 -130t57.5 -98z" />
    <glyph glyph-name="plusminus" unicode="&#xb1;" horiz-adv-x="778" 
d="M722 20q0 -20 -20 -20h-626q-11 0 -15.5 7t-4.5 13q0 20 20 20h293v273h-293q-11 0 -15.5 7t-4.5 13q0 20 20 20h293v293q0 11 7 15.5t13 4.5q20 0 20 -20v-293h293q12 0 16 -7.5t4 -12.5q0 -20 -20 -20h-293v-273h293q12 0 16 -7.5t4 -12.5z" />
    <glyph glyph-name="yen" unicode="&#xa5;" 
d="M498 656l-149 -287h109v-58h-139l-26 -50v-28h165v-58h-165v-175h-87v175h-163v58h163v28l-26 50h-137v58h107l-146 287h103l133 -287h36l133 287h89z" />
    <glyph glyph-name="mu" unicode="&#xb5;" 
d="M440 0h-75v65q-27 -40 -61.5 -59t-89.5 -19q-19 0 -38.5 6t-33.5 23l-2 -210h-79v638h79v-295q0 -52 26 -76q23 -21 65 -21q68 0 102 49q28 40 28 98v245h79v-444z" />
    <glyph glyph-name="ordfeminine" unicode="&#xaa;" horiz-adv-x="337" 
d="M276 383h-52v23q-16 -14 -50 -22.5t-61 -8.5q-42 0 -64 30q-18 24 -18 57q0 45 54.5 69.5t136.5 24.5v30q0 42 -20 62q-16 16 -40 16q-55 0 -105 -36l-5 48q26 15 54 22.5t56 7.5q45 0 77 -28q37 -33 37 -92v-203zM275 294h-244v40h244v-40zM222 470v49q-66 0 -104 -14.5
t-38 -42.5q0 -19 20.5 -31t45.5 -12q26 0 45 8q31 13 31 43z" />
    <glyph glyph-name="ordmasculine" unicode="&#xba;" horiz-adv-x="350" 
d="M327 538q0 -67 -43.5 -115t-108.5 -48q-64 0 -108.5 48.5t-44.5 114.5q0 67 43 117.5t110 50.5t109.5 -50t42.5 -118zM327 294h-305v40h305v-40zM272 545q0 49 -24 81q-27 36 -73 36t-72.5 -34t-26.5 -83q0 -53 26 -88.5t73 -35.5q45 0 71 35.5t26 88.5z" />
    <glyph glyph-name="ae" unicode="&#xe6;" horiz-adv-x="722" 
d="M692 221h-293q0 -68 43 -119t103 -51q31 0 64 11q41 14 71 42l7 -67q-38 -25 -69.5 -36.5t-72.5 -11.5q-48 0 -90.5 19.5t-74.5 55.5q-24 -38 -92 -58q-57 -17 -122 -17q-59 0 -91 43q-26 35 -26 81q0 65 77 100t196 35v42q0 59 -29 88q-23 23 -56 23q-82 0 -154 -52
l-7 68q34 21 77.5 32.5t83.5 11.5q39 0 77.5 -20t60.5 -57q27 36 67 56.5t88 20.5q61 0 102 -42q60 -62 60 -198zM633 278q-11 67 -42 97q-24 24 -61 24q-48 0 -82 -38q-29 -32 -43 -83h228zM328 126q0 4 -2 27t-2 39q-96 0 -150 -19.5t-54 -59.5q0 -28 29.5 -45t64.5 -17
q48 0 77 15q37 19 37 60z" />
    <glyph glyph-name="oslash" unicode="&#xf8;" 
d="M464 221q0 -95 -61.5 -163.5t-153.5 -68.5q-44 0 -84 17l-64 -118l-54 30l66 121q-38 33 -59 80t-21 102q0 97 58 166q62 74 158 74q21 0 43 -5t41 -13l61 113l54 -30l-64 -118q80 -71 80 -187zM391 221q0 77 -39 128l-157 -288q27 -10 54 -10q65 0 103.5 48.5
t38.5 121.5zM303 388q-24 12 -54 12q-66 0 -104.5 -51t-38.5 -128q0 -75 39 -123z" />
    <glyph glyph-name="questiondown" unicode="&#xbf;" horiz-adv-x="472" 
d="M263 428h-83v83h83v-83zM413 -150q-35 -24 -86 -39.5t-103 -15.5q-95 0 -137 55q-30 39 -30 101q0 49 19 83q11 20 39.5 48.5t50.5 82t22 101.5v65h67v-65q0 -63 -27 -132q-23 -58 -47 -83.5t-35.5 -49.5t-11.5 -50q0 -58 29 -80q20 -15 61 -15q42 0 86 15.5t81 43.5z
" />
    <glyph glyph-name="exclamdown" unicode="&#xa1;" horiz-adv-x="319" 
d="M200 417h-83v83h83v-83zM200 -194h-82l7 517h68z" />
    <glyph glyph-name="logicalnot" unicode="&#xac;" horiz-adv-x="667" 
d="M607 62q0 -20 -20 -20t-20 20v248h-490q-20 0 -20 20t20 20h510q20 0 20 -20v-268z" />
    <glyph glyph-name="florin" unicode="&#x192;" 
d="M451 701l-14 -76l-26 11.5t-25 5.5q-32 0 -52 -33q-14 -23 -21 -62l-18 -100h102v-69h-114l-54 -319q-24 -143 -71 -206q-43 -58 -112 -58q-23 0 -32 2.5t-24 9.5l14 79q13 -7 22 -10.5t23 -3.5q42 0 63 45q15 32 31 125l58 336h-98v69h110l25 121q13 59 47 100
q40 48 95 48q26 0 37.5 -3t33.5 -12z" />
    <glyph glyph-name="guillemotleft" unicode="&#xab;" horiz-adv-x="666" 
d="M566 60h-78l-172 159l172 159h78l-166 -159zM344 60h-78l-172 159l172 159h78l-166 -159z" />
    <glyph glyph-name="guillemotright" unicode="&#xbb;" horiz-adv-x="666" 
d="M568 219l-172 -159h-78l166 159l-166 159h78zM346 219l-172 -159h-78l166 159l-166 159h78z" />
    <glyph glyph-name="ellipsis" unicode="&#x2026;" horiz-adv-x="1000" 
d="M875 0h-83v83h83v-83zM542 0h-83v83h83v-83zM209 0h-83v83h83v-83z" />
    <glyph glyph-name="nonbreakingspace" unicode="&#xa0;" horiz-adv-x="250" 
 />
    <glyph glyph-name="Agrave" unicode="&#xc0;" horiz-adv-x="667" 
d="M639 0h-92l-77 205h-290l-78 -205h-74l261 694h89zM449 261l-66 184q-43 120 -56 178q-14 -50 -26 -85l-39 -107l-62 -170h249zM376 782h-60l-149 167h80z" />
    <glyph glyph-name="Atilde" unicode="&#xc3;" horiz-adv-x="667" 
d="M639 0h-92l-77 205h-290l-78 -205h-74l261 694h89zM449 261l-66 184q-43 120 -56 178q-14 -50 -26 -85l-39 -107l-62 -170h249zM494 932q0 -48 -27 -82.5t-70 -34.5q-19 0 -36 9l-27 18q-30 19 -33 20q-22 12 -35 12q-21 0 -30 -19.5t-9 -39.5h-59q0 56 29.5 86.5
t68.5 30.5q18 0 42 -13.5t32 -18.5q29 -18 31 -19q13 -6 26 -6q18 0 28 16.5t10 40.5h59z" />
    <glyph glyph-name="Otilde" unicode="&#xd5;" horiz-adv-x="736" 
d="M675 344q0 -157 -96 -264q-91 -102 -213 -102q-126 0 -216 102q-94 106 -94 264q0 163 95 270q90 102 215 102q128 0 218.5 -108t90.5 -264zM587 359q0 131 -67 214q-63 79 -154 79q-90 0 -155 -79q-69 -84 -69 -214q0 -134 65.5 -224.5t158.5 -90.5q92 0 156.5 90
t64.5 225zM527 932q0 -48 -27 -82.5t-70 -34.5q-19 0 -36 9l-27 18q-30 19 -33 20q-22 12 -35 12q-21 0 -30 -19.5t-9 -39.5h-59q0 56 29.5 86.5t68.5 30.5q18 0 42 -13.5t32 -18.5q29 -18 31 -19q13 -6 26 -6q18 0 28 16.5t10 40.5h59z" />
    <glyph glyph-name="OE" unicode="&#x152;" horiz-adv-x="972" 
d="M925 0h-413q-24 0 -42 -3q-25 -6 -37.5 -8.5t-30 -6.5t-41.5 -4q-136 0 -232 102q-100 106 -100 264q0 161 98.5 266.5t233.5 105.5q17 0 31 -2t36.5 -7t42.5 -9t42 -4h398v-68l-354 3v-237h326v-61h-326v-260l368 3v-74zM471 228v238q0 116 -17 149q-20 40 -93 40
q-98 0 -170 -80q-76 -85 -76 -216q0 -135 72.5 -227.5t173.5 -92.5q73 0 93 40q17 33 17 149z" />
    <glyph glyph-name="oe" unicode="&#x153;" horiz-adv-x="778" 
d="M743 221h-291q0 -68 42 -119t102 -51q31 0 64 11q41 14 71 42l7 -67q-38 -25 -69.5 -36.5t-72.5 -11.5q-58 0 -105 27t-76 76q-29 -47 -74 -75t-100 -28q-88 0 -149 69t-61 163q0 98 58.5 169t151.5 71q54 0 98.5 -27t74.5 -74q26 47 69.5 74t97.5 27q61 0 102 -42
q60 -62 60 -198zM684 278q-11 67 -42 97q-24 24 -61 24q-47 0 -81 -38q-28 -32 -42 -83h226zM375 232q0 70 -33 116q-37 51 -101 51q-65 0 -104 -51q-35 -46 -35 -116q0 -77 36.5 -129.5t102.5 -52.5q63 0 100 55q34 51 34 127z" />
    <glyph glyph-name="endash" unicode="&#x2013;" 
d="M500 244h-500v61h500v-61z" />
    <glyph glyph-name="emdash" unicode="&#x2014;" horiz-adv-x="1000" 
d="M1000 244h-1000v61h1000v-61z" />
    <glyph glyph-name="quotedblleft" unicode="&#x201c;" 
d="M468 694l-28 -125h27v-83h-83v83l42 125h42zM274 694l-28 -125h27v-83h-83v83l42 125h42z" />
    <glyph glyph-name="quotedblright" unicode="&#x201d;" 
d="M310 611l-42 -125h-42l28 125h-27v83h83v-83zM116 611l-42 -125h-42l28 125h-27v83h83v-83z" />
    <glyph glyph-name="quoteleft" unicode="&#x2018;" horiz-adv-x="278" 
d="M182 694l-28 -125h27v-83h-83v83l42 125h42z" />
    <glyph glyph-name="quoteright" unicode="&#x2019;" horiz-adv-x="278" 
d="M181 611l-42 -125h-42l28 125h-27v83h83v-83z" />
    <glyph glyph-name="divide" unicode="&#xf7;" horiz-adv-x="778" 
d="M451 430q0 -5 -6.5 -12.5t-13.5 -7.5h-84q-5 0 -12.5 6.5t-7.5 13.5v83q0 5 6.5 12.5t13.5 7.5h84q20 0 20 -20v-83zM722 250q0 -20 -20 -20h-626q-20 0 -20 20t20 20h626q20 0 20 -20zM451 -13q0 -5 -6.5 -12.5t-13.5 -7.5h-84q-5 0 -12.5 6.5t-7.5 13.5v83
q0 5 6.5 12.5t13.5 7.5h84q20 0 20 -20v-83z" />
    <glyph glyph-name="lozenge" unicode="&#x25ca;" 
d="M489 250q0 -7 -7 -14l-218 -219q-7 -7 -14 -7t-14 7l-219 219q-7 7 -7 14t7 14l219 218q7 7 14 7t14 -7l218 -218q7 -7 7 -14zM441 250l-191 191l-191 -191l191 -191z" />
    <glyph glyph-name="ydieresis" unicode="&#xff;" horiz-adv-x="461" 
d="M449 444l-212 -520q-28 -70 -55.5 -99.5t-67.5 -29.5q-34 0 -72 8l-7 70q30 -14 45 -18t34 -4q23 0 40 22q13 16 26 51l11 26q12 29 18 48l-195 446h78l82 -191q36 -87 50.5 -130.5t14.5 -74.5q0 30 13.5 77t44.5 126q20 53 77 193h75zM369 599h-83v83h83v-83zM176 599
h-83v83h83v-83z" />
    <glyph glyph-name="Ydieresis" unicode="&#x178;" horiz-adv-x="667" 
d="M472 854h-83v83h83v-83zM279 854h-83v83h83v-83zM664 694l-288 -414v-280h-87v280l-285 414h103l233 -342l235 342h89zM472 854h-83v83h83v-83zM279 854h-83v83h83v-83z" />
    <glyph glyph-name="fraction" unicode="&#x2215;" 
d="M440 731l-1 -8l-345 -960q-4 -13 -17 -13q-21 0 -21 19l1 8l345 960q4 13 17 13q21 0 21 -19z" />
    <glyph glyph-name="currency" unicode="&#xa4;" 
d="M486 167l-42 -42l-79 80q-52 -38 -115 -38t-114 38l-80 -80l-42 42l79 79q-18 25 -27.5 53.5t-9.5 61.5q0 31 9.5 60.5t27.5 53.5l-79 80l42 42l79 -80q52 38 115 38t114 -38l80 80l42 -42l-80 -79q38 -52 38 -115q0 -31 -9.5 -60.5t-27.5 -53.5zM386 361q0 56 -40 96
t-96 40t-96 -40t-40 -96t40 -96t96 -40t96 40t40 96z" />
    <glyph glyph-name="guilsinglleft" unicode="&#x2039;" horiz-adv-x="444" 
d="M344 60h-78l-172 159l172 159h78l-166 -159z" />
    <glyph glyph-name="guilsinglright" unicode="&#x203a;" horiz-adv-x="444" 
d="M346 219l-172 -159h-78l166 159l-166 159h78z" />
    <glyph glyph-name="fi" unicode="&#xf001;" horiz-adv-x="536" 
d="M457 611h-83v83h83v-83zM453 0h-75v444h75v-444zM295 386h-118v-386h-76v386h-74v58h74v108q0 56 36 102q40 51 95 51q37 0 63 -11v-69q-13 9 -28.5 14.5t-34.5 5.5q-26 0 -41.5 -22t-15.5 -40v-139h120v-58z" />
    <glyph glyph-name="fl" unicode="&#xf002;" horiz-adv-x="536" 
d="M453 0h-75v694h75v-694zM295 386h-118v-386h-76v386h-74v58h74v108q0 56 36 102q40 51 95 51q37 0 63 -11v-69q-13 9 -28.5 14.5t-34.5 5.5q-26 0 -41.5 -22t-15.5 -40v-139h120v-58z" />
    <glyph glyph-name="daggerdbl" unicode="&#x2021;" horiz-adv-x="444" 
d="M385 478q0 -16 -11.5 -27.5t-27.5 -11.5q-26 0 -48 3.5t-52 10.5l8.5 -95.5t4.5 -67.5q0 -16 -11.5 -27.5t-27.5 -11.5t-27.5 11.5t-11.5 27.5q0 30 6 87t7 75q-37 -7 -62 -10t-38 -3q-16 0 -27.5 11.5t-11.5 27.5t11.5 27.5t27.5 11.5q26 0 56 -5q14 -2 44 -9l-8.5 95.5
t-4.5 67.5q0 16 11.5 27.5t27.5 11.5t27.5 -11.5t11.5 -27.5q0 -30 -6 -87t-7 -75q37 7 62 10t38 3q16 0 27.5 -11.5t11.5 -27.5zM385 22q0 -16 -11.5 -27.5t-27.5 -11.5q-26 0 -48 3.5t-52 10.5l8.5 -95.5t4.5 -67.5q0 -16 -11.5 -27.5t-27.5 -11.5t-27.5 11.5t-11.5 27.5
q0 29 6 85.5t7 76.5q-37 -7 -62 -10t-38 -3q-16 0 -27.5 11.5t-11.5 27.5t11.5 27.5t27.5 11.5q26 0 56 -5q14 -2 44 -9l-8.5 95.5t-4.5 67.5q0 16 11.5 27.5t27.5 11.5t27.5 -11.5t11.5 -27.5q0 -30 -6 -87t-7 -75q37 7 62 10t38 3q16 0 27.5 -11.5t11.5 -27.5z" />
    <glyph glyph-name="periodcentered" unicode="&#xb7;" horiz-adv-x="278" 
d="M181 208h-83v83h83v-83z" />
    <glyph glyph-name="periodcentered" unicode="&#x2219;" horiz-adv-x="278" 
d="M181 208h-83v83h83v-83z" />
    <glyph glyph-name="quotesinglbase" unicode="&#x201a;" horiz-adv-x="278" 
d="M181 0l-42 -125h-42l28 125h-27v83h83v-83z" />
    <glyph glyph-name="quotedblbase" unicode="&#x201e;" 
d="M310 0l-42 -125h-42l28 125h-27v83h83v-83zM116 0l-42 -125h-42l28 125h-27v83h83v-83z" />
    <glyph glyph-name="perthousand" unicode="&#x2030;" horiz-adv-x="1222" 
d="M1167 145q0 -80 -39 -140.5t-98 -60.5q-57 0 -97 60.5t-40 140.5t39.5 141t97.5 61t97.5 -61t39.5 -141zM776 145q0 -80 -39 -140.5t-98 -60.5q-57 0 -97 60.5t-40 140.5t39.5 141t97.5 61t97.5 -61t39.5 -141zM660 732q0 -9 -3 -13l-445 -764q-6 -11 -17 -11
q-22 0 -22 21l3 10l445 764q8 11 18 11q8 0 14.5 -5.5t6.5 -12.5zM329 548q0 -80 -39 -140.5t-97 -60.5t-97.5 60.5t-39.5 140.5q0 81 39 141.5t98 60.5q58 0 97 -60.5t39 -141.5zM1098 145q0 65 -21 103.5t-47 38.5t-47 -38t-21 -104q0 -65 21 -103t47 -38t47 38t21 103z
M707 145q0 65 -21 103.5t-47 38.5t-47 -38t-21 -104q0 -65 21 -103t47 -38t47 38t21 103zM261 548q0 65 -21 103.5t-47 38.5t-46 -36q-23 -41 -23 -106t21 -103t48 -38q26 0 47 38t21 103z" />
    <glyph glyph-name="Acircumflex" unicode="&#xc2;" horiz-adv-x="667" 
d="M639 0h-92l-77 205h-290l-78 -205h-74l261 694h89zM449 261l-66 184q-43 120 -56 178q-14 -50 -26 -85l-39 -107l-62 -170h249zM505 782h-61l-111 123l-111 -123h-61l140 167h64z" />
    <glyph glyph-name="Ecircumflex" unicode="&#xca;" horiz-adv-x="597" 
d="M554 0h-460v691h446v-66l-357 2v-238h329v-60h-329v-258l371 2v-73zM489 782h-61l-111 123l-111 -123h-61l140 167h64z" />
    <glyph glyph-name="Aacute" unicode="&#xc1;" horiz-adv-x="667" 
d="M639 0h-92l-77 205h-290l-78 -205h-74l261 694h89zM449 261l-66 184q-43 120 -56 178q-14 -50 -26 -85l-39 -107l-62 -170h249zM496 949l-149 -167h-60l130 167h79z" />
    <glyph glyph-name="Edieresis" unicode="&#xcb;" horiz-adv-x="597" 
d="M554 0h-460v691h446v-66l-357 2v-238h329v-60h-329v-258l371 2v-73zM455 854h-83v83h83v-83zM262 854h-83v83h83v-83z" />
    <glyph glyph-name="Egrave" unicode="&#xc8;" horiz-adv-x="597" 
d="M554 0h-460v691h446v-66l-357 2v-238h329v-60h-329v-258l371 2v-73zM360 782h-60l-149 167h80z" />
    <glyph glyph-name="Iacute" unicode="&#xcd;" horiz-adv-x="278" 
d="M185 0h-91v694h91v-694zM302 949l-149 -167h-60l130 167h79z" />
    <glyph glyph-name="Icircumflex" unicode="&#xce;" horiz-adv-x="278" 
d="M185 0h-91v694h91v-694zM311 782h-61l-111 123l-111 -123h-61l140 167h64z" />
    <glyph glyph-name="Idieresis" unicode="&#xcf;" horiz-adv-x="278" 
d="M185 0h-91v694h91v-694zM277 854h-83v83h83v-83zM84 854h-83v83h83v-83z" />
    <glyph glyph-name="Igrave" unicode="&#xcc;" horiz-adv-x="278" 
d="M185 0h-91v694h91v-694zM182 782h-60l-149 167h80z" />
    <glyph glyph-name="Oacute" unicode="&#xd3;" horiz-adv-x="736" 
d="M675 344q0 -157 -96 -264q-91 -102 -213 -102q-126 0 -216 102q-94 106 -94 264q0 163 95 270q90 102 215 102q128 0 218.5 -108t90.5 -264zM587 359q0 131 -67 214q-63 79 -154 79q-90 0 -155 -79q-69 -84 -69 -214q0 -134 65.5 -224.5t158.5 -90.5q92 0 156.5 90
t64.5 225zM529 949l-149 -167h-60l130 167h79z" />
    <glyph glyph-name="Ocircumflex" unicode="&#xd4;" horiz-adv-x="736" 
d="M675 344q0 -157 -96 -264q-91 -102 -213 -102q-126 0 -216 102q-94 106 -94 264q0 163 95 270q90 102 215 102q128 0 218.5 -108t90.5 -264zM587 359q0 131 -67 214q-63 79 -154 79q-90 0 -155 -79q-69 -84 -69 -214q0 -134 65.5 -224.5t158.5 -90.5q92 0 156.5 90
t64.5 225zM538 782h-61l-111 123l-111 -123h-61l140 167h64z" />
    <glyph glyph-name="Ograve" unicode="&#xd2;" horiz-adv-x="736" 
d="M675 344q0 -157 -96 -264q-91 -102 -213 -102q-126 0 -216 102q-94 106 -94 264q0 163 95 270q90 102 215 102q128 0 218.5 -108t90.5 -264zM587 359q0 131 -67 214q-63 79 -154 79q-90 0 -155 -79q-69 -84 -69 -214q0 -134 65.5 -224.5t158.5 -90.5q92 0 156.5 90
t64.5 225zM409 782h-60l-149 167h80z" />
    <glyph glyph-name="Uacute" unicode="&#xda;" horiz-adv-x="688" 
d="M588 212q0 -79 -63 -151q-73 -83 -181 -83q-111 0 -185 82q-65 72 -65 152v482h88v-482q0 -57 33 -108q45 -69 129 -69t129 67q35 52 35 110v482h80v-482zM504 949l-149 -167h-60l130 167h79z" />
    <glyph glyph-name="Ucircumflex" unicode="&#xdb;" horiz-adv-x="688" 
d="M588 212q0 -79 -63 -151q-73 -83 -181 -83q-111 0 -185 82q-65 72 -65 152v482h88v-482q0 -57 33 -108q45 -69 129 -69t129 67q35 52 35 110v482h80v-482zM513 782h-61l-111 123l-111 -123h-61l140 167h64z" />
    <glyph glyph-name="Ugrave" unicode="&#xd9;" horiz-adv-x="688" 
d="M588 212q0 -79 -63 -151q-73 -83 -181 -83q-111 0 -185 82q-65 72 -65 152v482h88v-482q0 -57 33 -108q45 -69 129 -69t129 67q35 52 35 110v482h80v-482zM384 782h-60l-149 167h80z" />
    <glyph glyph-name="dotlessi" unicode="&#x131;" horiz-adv-x="239" 
d="M159 0h-78v444h78v-444z" />
    <glyph glyph-name="circumflex" unicode="&#x2c6;" 
d="M422 527h-61l-111 123l-111 -123h-61l140 167h64z" />
    <glyph glyph-name="tilde" unicode="&#x2dc;" 
d="M411 677q0 -48 -27 -82.5t-70 -34.5q-19 0 -36 9l-27 18q-30 19 -33 20q-22 12 -35 12q-21 0 -30 -19.5t-9 -39.5h-59q0 56 29.5 86.5t68.5 30.5q18 0 42 -13.5t32 -18.5q29 -18 31 -19q13 -6 26 -6q18 0 28 16.5t10 40.5h59z" />
    <glyph glyph-name="macron" unicode="&#xaf;" 
d="M430 555h-360v67h360v-67z" />
    <glyph glyph-name="breve" unicode="&#x2d8;" 
d="M419 694q0 -83 -51.5 -133.5t-117.5 -50.5q-67 0 -116 48q-53 52 -53 136h62q0 -60 38 -92q30 -26 69 -26q37 0 68 26q40 34 40 92h61z" />
    <glyph glyph-name="dotaccent" unicode="&#x2d9;" horiz-adv-x="278" 
d="M184 593h-89v89h89v-89z" />
    <glyph glyph-name="ring" unicode="&#x2da;" horiz-adv-x="667" 
d="M444 611q0 -32 -24 -55q-30 -29 -87 -29q-56 0 -87 29q-25 24 -25 55t24 54q31 29 88 29q56 0 86 -28q25 -23 25 -55zM388 611q0 42 -55 42q-56 0 -56 -42t56 -42q55 0 55 42z" />
    <glyph glyph-name="cedilla" unicode="&#xb8;" horiz-adv-x="444" 
d="M281 -22l-65 -170h-69l73 170h61z" />
    <glyph glyph-name="hungarumlaut" unicode="&#x2ba;" 
d="M417 694l-81 -166h-61l64 166h78zM250 694l-81 -166h-61l64 166h78z" />
    <glyph glyph-name="ogonek" unicode="&#x2db;" horiz-adv-x="278" 
d="M202 -120q-19 -39 -53.5 -63.5t-78.5 -24.5q-40 0 -70 22.5t-30 59.5q0 19 10 37.5t27.5 36t45.5 37.5q78 56 84 61l27 -46q-8 -9 -57 -42q-23 -16 -32.5 -25.5t-17.5 -23.5t-8 -22q0 -15 12 -19t22 -4q21 0 40 14.5t31 34.5z" />
    <glyph glyph-name="caron" unicode="&#x2c7;" 
d="M422 646l-140 -167h-64l-140 167h61l111 -123l111 123h61z" />
    <glyph glyph-name="Lslash" unicode="&#x141;" horiz-adv-x="542" 
d="M494 0h-400v285l-64 -21l-18 56l82 27v347h86v-319l65 22l18 -56l-83 -28v-249l314 3v-67z" />
    <glyph glyph-name="lslash" unicode="&#x142;" horiz-adv-x="239" 
d="M243 341l-89 -29v-312h-74v287l-70 -23l-18 56l88 29v345h74v-321l71 24z" />
    <glyph glyph-name="Scaron" unicode="&#x160;" horiz-adv-x="556" 
d="M496 189q0 -89 -66 -150t-156 -61q-61 0 -123.5 20t-106.5 53l14 84q33 -32 87 -57q66 -30 128 -30q57 0 98 34q45 38 45 99q0 57 -40.5 91.5t-116.5 46.5q-86 16 -138 60q-64 54 -64 141q0 70 50 126q63 70 174 70q51 0 95 -11t85 -39l-14 -86q-30 32 -66 48
q-44 20 -103 20q-60 0 -101.5 -32.5t-41.5 -84.5q0 -49 36.5 -79.5t124 -47t144 -73t56.5 -142.5zM431 901l-140 -167h-64l-140 167h61l111 -123l111 123h61z" />
    <glyph glyph-name="scaron" unicode="&#x161;" horiz-adv-x="383" 
d="M361 131q0 -84 -64 -119q-42 -23 -99 -23q-96 0 -170 47l13 70q26 -21 70 -37.5t87 -16.5q49 0 74 23q20 18 20 44q0 33 -28.5 51t-87.5 26q-64 11 -102.5 46t-38.5 89q0 68 50 101q44 29 116 29q37 0 74 -7t71 -26l-11 -67q-45 21 -56 25q-38 13 -89 13q-44 0 -64 -13.5
t-20 -45.5q0 -31 26 -46.5t86.5 -25t97.5 -40.5q45 -38 45 -97zM362 646l-140 -167h-64l-140 167h61l111 -123l111 123h61z" />
    <glyph glyph-name="Zcaron" unicode="&#x17d;" horiz-adv-x="611" 
d="M558 0h-502v45l384 587l-371 -2v64h484v-41l-385 -589l390 3v-67zM483 901l-140 -167h-64l-140 167h61l111 -123l111 123h61z" />
    <glyph glyph-name="zcaron" unicode="&#x17e;" horiz-adv-x="435" 
d="M403 0h-375v40l269 346h-255v58h360v-39l-268 -345l269 3v-63zM394 646l-140 -167h-64l-140 167h61l111 -123l111 123h61z" />
    <glyph glyph-name="brokenbar" unicode="&#xa6;" horiz-adv-x="278" 
d="M158 488q0 -20 -19 -20q-9 0 -15 5t-6 15v243q0 8 4.5 13.5t16.5 5.5q19 0 19 -19v-243zM158 20q0 -20 -19 -20q-9 0 -15 5t-6 15v241q0 8 4.5 13.5t16.5 5.5q19 0 19 -19v-241z" />
    <glyph glyph-name="Eth" unicode="&#xd0;" horiz-adv-x="722" 
d="M665 342q0 -151 -97 -251q-89 -91 -203 -91h-269v313h-96v58h96v323h269q114 0 203 -94q97 -102 97 -258zM579 342q0 147 -84 230q-67 66 -149 66h-164v-267h183v-58h-183v-256h164q81 0 147 61q86 80 86 224z" />
    <glyph glyph-name="eth" unicode="&#xf0;" horiz-adv-x="517" 
d="M466 206q0 -41 -18 -82t-48 -71q-62 -64 -152 -64t-153.5 66.5t-63.5 159.5q0 99 62.5 169t155.5 70q38 0 76 -16.5t67 -43.5q-41 124 -140 190l-26 -48l-51 28l26 48q-68 30 -140 30l18 52q41 0 75 -7t72 -26l27 50l51 -27l-27 -51q40 -26 75 -65q40 -44 66 -97
q22 -45 35 -95t13 -105v-65zM388 226q0 76 -38.5 121.5t-100.5 45.5q-64 0 -102.5 -47.5t-38.5 -119.5q0 -75 37.5 -124.5t103.5 -49.5t104 53q35 49 35 121z" />
    <glyph glyph-name="Yacute" unicode="&#xdd;" horiz-adv-x="667" 
d="M664 694l-288 -414v-280h-87v280l-285 414h103l233 -342l235 342h89zM497 949l-149 -167h-60l130 167h79z" />
    <glyph glyph-name="yacute" unicode="&#xfd;" horiz-adv-x="461" 
d="M449 444l-212 -520q-28 -70 -55.5 -99.5t-67.5 -29.5q-34 0 -72 8l-7 70q30 -14 45 -18t34 -4q23 0 40 22q13 16 26 51l11 26q12 29 18 48l-195 446h78l82 -191q36 -87 50.5 -130.5t14.5 -74.5q0 30 13.5 77t44.5 126q20 53 77 193h75zM394 694l-149 -167h-60l130 167h79
z" />
    <glyph glyph-name="Thorn" unicode="&#xde;" horiz-adv-x="584" 
d="M524 373q0 -85 -67 -142q-60 -51 -136 -51h-141v-180h-81v694h81v-126h140q80 0 139 -51q65 -56 65 -144zM445 373q0 61 -49 100t-117 39h-99v-276h116q56 0 100 36q49 40 49 101z" />
    <glyph glyph-name="thorn" unicode="&#xfe;" horiz-adv-x="517" 
d="M476 222q0 -99 -54.5 -163.5t-126.5 -64.5q-43 0 -82 19q-29 14 -55 38v-245h-78v888h76v-301q31 26 72 41t87 15q73 0 119 -72q42 -65 42 -155zM399 222q0 78 -36.5 122.5t-97.5 44.5q-36 0 -61.5 -14.5t-45.5 -43.5v-214q18 -29 38 -44q26 -19 59 -19q60 0 100 42
q44 46 44 126z" />
    <glyph glyph-name="minus" unicode="&#xad;" horiz-adv-x="778" 
d="M695 250q0 -20 -20 -20h-572q-11 0 -15.5 7t-4.5 13q0 20 20 20h572q12 0 16 -7.5t4 -12.5z" />
    <glyph glyph-name="multiply" unicode="&#xd7;" horiz-adv-x="778" 
d="M630 30q0 -9 -6 -15t-15 -6q-7 0 -13 6l-207 207l-207 -207q-6 -6 -13 -6q-9 0 -15 6t-6 15q0 7 6 13l207 207l-207 208q-6 6 -6 13q0 9 6 15t15 6q7 0 13 -6l207 -208l207 207q6 6 13 6q9 0 15 -6t6 -15q0 -7 -6 -13l-207 -207l207 -207q6 -6 6 -13z" />
    <glyph glyph-name="onesuperior" unicode="&#xb9;" horiz-adv-x="399" 
d="M332 394h-254v44h97v347q-17 -8 -44 -12.5t-57 -4.5v44q43 0 82.5 11t64.5 35h15v-420h96v-44z" />
    <glyph glyph-name="twosuperior" unicode="&#xb2;" horiz-adv-x="399" 
d="M352 394h-308v48l76 68q1 1 63 52q106 88 106 152q0 43 -32.5 69.5t-77.5 26.5q-48 0 -76 -31q-21 -23 -32 -66l-33 40q17 45 45 70q40 35 105 35q77 0 123 -45q41 -40 41 -99q0 -46 -32 -84q-21 -26 -79 -68q-39 -29 -84 -66l-59 -50h254v-52z" />
    <glyph glyph-name="threesuperior" unicode="&#xb3;" horiz-adv-x="399" 
d="M357 524q0 -62 -52 -102q-47 -36 -109 -36q-48 0 -91 20t-67 49l8 46q29 -35 70 -52t80 -17q36 0 64 25t28 67q0 44 -28 69t-67 25h-59v47q13 0 27 0.5t32 3.5q32 6 55.5 28.5t23.5 56.5q0 27 -20.5 43.5t-54.5 16.5q-40 0 -72.5 -19.5t-47.5 -51.5l-29 40q18 26 51 47
q45 28 98 28q52 0 92 -26q46 -30 46 -78q0 -39 -24 -69q-20 -25 -55 -44q45 -16 70 -42q31 -32 31 -75z" />
    <glyph glyph-name="onehalf" unicode="&#xbd;" horiz-adv-x="399" 
d="M332 394h-254v44h97v347q-17 -8 -44 -12.5t-57 -4.5v44q43 0 82.5 11t64.5 35h15v-420h96v-44zM399 230h-399v40h399v-40zM352 -345h-308v48l76 68q1 1 63 52q106 88 106 152q0 43 -32.5 69.5t-77.5 26.5q-48 0 -76 -31q-21 -23 -32 -66l-33 40q17 45 45 70q40 35 105 35
q77 0 123 -45q41 -40 41 -99q0 -46 -32 -84q-21 -26 -79 -68q-39 -29 -84 -66l-59 -50h254v-52z" />
    <glyph glyph-name="onequarter" unicode="&#xbc;" horiz-adv-x="399" 
d="M332 394h-254v44h97v347q-17 -8 -44 -12.5t-57 -4.5v44q43 0 82.5 11t64.5 35h15v-420h96v-44zM399 230h-399v40h399v-40zM368 -229h-76v-116h-59v116h-205v47l195 293h69v-294h76v-46zM237 -183v264q-14 -56 -149 -264h149z" />
    <glyph glyph-name="threequarters" unicode="&#xbe;" horiz-adv-x="399" 
d="M357 524q0 -62 -52 -102q-47 -36 -109 -36q-48 0 -91 20t-67 49l8 46q29 -35 70 -52t80 -17q36 0 64 25t28 67q0 44 -28 69t-67 25h-59v47q13 0 27 0.5t32 3.5q32 6 55.5 28.5t23.5 56.5q0 27 -20.5 43.5t-54.5 16.5q-40 0 -72.5 -19.5t-47.5 -51.5l-29 40q18 26 51 47
q45 28 98 28q52 0 92 -26q46 -30 46 -78q0 -39 -24 -69q-20 -25 -55 -44q45 -16 70 -42q31 -32 31 -75zM399 230h-399v40h399v-40zM368 -229h-76v-116h-59v116h-205v47l195 293h69v-294h76v-46zM237 -183v264q-14 -56 -149 -264h149z" />
    </font>
</defs>
</svg>
